<svg width="512" height="512" viewBox="0 0 512 512" fill="none" xmlns="http://www.w3.org/2000/svg">
<rect width="512" height="512" fill="white"/>
<rect width="512" height="512" fill="#1A1A1A"/>
<path d="M172.313 369.16C157.013 369.16 143.18 366.54 130.814 361.3C118.658 356.06 109.017 348.515 101.891 338.664C94.7649 328.814 91.097 317.181 90.8874 303.767H138.045C138.674 312.78 141.818 319.906 147.477 325.146C153.345 330.385 161.31 333.005 171.37 333.005C181.64 333.005 189.709 330.595 195.578 325.774C201.447 320.744 204.381 314.247 204.381 306.283C204.381 299.785 202.39 294.441 198.407 290.249C194.425 286.057 189.395 282.808 183.317 280.503C177.448 277.988 169.274 275.263 158.795 272.329C144.543 268.137 132.91 264.05 123.898 260.068C115.095 255.876 107.445 249.693 100.948 241.519C94.6601 233.135 91.5162 222.027 91.5162 208.194C91.5162 195.199 94.7649 183.882 101.262 174.24C107.759 164.599 116.877 157.264 128.614 152.233C140.351 146.994 153.765 144.374 168.855 144.374C191.491 144.374 209.83 149.928 223.873 161.036C238.125 171.935 245.985 187.235 247.452 206.937H199.036C198.617 199.391 195.368 193.208 189.29 188.388C183.422 183.358 175.562 180.843 165.711 180.843C157.118 180.843 150.202 183.043 144.962 187.445C139.932 191.846 137.417 198.239 137.417 206.622C137.417 212.491 139.303 217.416 143.076 221.398C147.058 225.171 151.878 228.315 157.537 230.83C163.406 233.135 171.58 235.86 182.059 239.004C196.312 243.196 207.944 247.388 216.956 251.579C225.969 255.771 233.723 262.059 240.221 270.443C246.718 278.826 249.967 289.83 249.967 303.453C249.967 315.19 246.928 326.089 240.85 336.149C234.771 346.21 225.864 354.279 214.127 360.357C202.39 366.225 188.452 369.16 172.313 369.16ZM423.626 147.518V183.043H332.139V239.318H402.247V274.215H332.139V366.959H288.125V147.518H423.626Z" fill="white"/>
</svg>
